PathFileType	4	(X/Y/Z)	Walk1_0-155.trc
DataRate	CameraRate	NumFrames	NumMarkers	Units	OrigDataRate	OrigDataStartFrame	OrigNumFrames
30	30	8	22	m	30	116	155
Frame#	Time	Hip			RHip			RKnee			RAnkle			RBigToe			RSmallToe			RHeel			LHip			LKnee			LAnkle			LBigToe			LSmallToe			LHeel			Neck			Head			Nose			RShoulder			RElbow			RWrist			LShoulder			LElbow			LWrist		
		X1	Y1	Z1	X2	Y2	Z2	X3	Y3	Z3	X4	Y4	Z4	X5	Y5	Z5	X6	Y6	Z6	X7	Y7	Z7	X8	Y8	Z8	X9	Y9	Z9	X10	Y10	Z10	X11	Y11	Z11	X12	Y12	Z12	X13	Y13	Z13	X14	Y14	Z14	X15	Y15	Z15	X16	Y16	Z16	X17	Y17	Z17	X18	Y18	Z18	X19	Y19	Z19	X20	Y20	Z20	X21	Y21	Z21	X22	Y22	Z22
117	3.9	0.9782890278693004	0.9108344479733583	0.420814754165287	0.9551344186426034	0.8918968089043782	0.5184346740551995	0.9034193990857681	0.5239810989828372	0.47926470365636364	0.8423697546244335	0.11826292634351054	0.4384495422219519	1.0417288515256888	0.05898747158118283	0.47214779075116187	0.9987656560689464	0.04436018965795528	0.5139520962984098	0.7917643467230163	0.04194292594485326	0.41508084278282054	0.989610934685316	0.8956523321921771	0.2987796469291272	1.1649266660700002	0.5776782394743386	0.2805405765870738	1.0001057456888733	0.21822361104706672	0.3167482597914724	1.2071662053391694	0.08553187083758398	0.320699374779274	1.1282240131101824	0.1019482730593093	0.23548597397517107	0.9617611725325595	0.15349690956178677	0.3328949596669014	0.9019510604594949	1.5949326248629805	0.3917163246112842	0.9839656373805958	1.8500047076089199	0.42432234469241037	1.0477470345912505	1.6825080823067258	0.406654482417928	0.878672008610602	1.4700709018791116	0.5758947095529606	0.9915704517198675	1.189272958406221	0.6527187981918744	1.2751225983773173	0.9576335078764928	0.6343229911073195	0.8658949626332598	1.4765666524309413	0.1960452757257753	0.8816153930249438	1.1575555588547288	0.15242006591440585	0.8822038859853224	0.9153458746910547	0.13166000617129595
118	3.933333333333333	1.0188617813399157	0.9058859209217021	0.42372275636442863	0.9964254472622958	0.8889751458953765	0.5177765137912723	0.9185710219003926	0.519863711130502	0.47598629309107876	0.8463825471709158	0.12233313139328464	0.44087001964772493	1.0428242887827996	0.036051931529162744	0.4515824713884057	1.0274734479069856	0.05674060794624443	0.5142008796045503	0.8148720787652846	0.03586940628875824	0.4199121225593545	1.0351411881846604	0.8913933597014184	0.3041220777013921	1.2682279245232901	0.5761137403362095	0.33406800127583586	1.1284105845875168	0.16719903229674846	0.32771055081236583	1.3650199617330558	0.06220184067872367	0.33717947057300074	1.326103314460995	0.07850349696504937	0.29067516965940804	1.0836426954904423	0.08946092700727791	0.348148085714724	0.946339817285494	1.5938017166125664	0.3918132474203925	1.03670531566687	1.8507645054939028	0.4288030866418851	1.0899653824724247	1.682325932941756	0.4101565798194969	0.9187028746958947	1.4700784542116399	0.5716640054838358	1.0434744036495256	1.1899308156777364	0.6536349802287428	1.3028677290906139	0.9885062444046177	0.671990483904266	0.9042393277345212	1.4743657434846067	0.19987554406799324	0.9143338680454435	1.1562893869454665	0.1501836449104104	0.9056013432794184	0.9127874111455687	0.12802039542789456
119	3.966666666666667	1.0646010918308815	0.897674493833206	0.42525173558928087	1.0405773802605358	0.8777164387216597	0.5164895487615269	0.9393043911715313	0.5168323920140904	0.47758882644891043	0.8488190354793796	0.12434350390148939	0.4415817635439814	1.0377960077911204	0.030651413533077577	0.4490505528561842	0.9930261676132287	0.04043396266637592	0.5068661948892664	0.811778486564042	0.04608465420484174	0.4213491923784017	1.0880373832766883	0.8791189702785769	0.30359715516530267	1.2978591960282964	0.5552100130965931	0.33326038792849966	1.2611712188182418	0.14632955702003142	0.3254082689584422	1.4914034556210163	0.06011635240095923	0.31383856159643325	1.4541606499230968	0.07344050221180967	0.2751563842444523	1.2282660014785858	0.07022499729360142	0.34004549606561096	0.989561849795178	1.5905046300618182	0.3914756928138211	1.0787696809819762	1.8451704383820675	0.4253835333970784	1.2044843158207097	1.6696413975240463	0.3836388818956696	0.959908211226054	1.4667034617421464	0.5693111747115508	1.0965763482508786	1.1876843683097889	0.6615978758246565	1.3053095116642628	0.9867408129594266	0.6408366581081244	0.9480440041263561	1.4668378223183454	0.2019540321789336	0.9511802865551741	1.1547475787429404	0.14965788085788184	0.9388775293183101	0.9115138045190198	0.12037324468026651
120	4.0	1.105318575104358	0.8910745089739714	0.42110781846345413	1.0815052097869124	0.8701307906388479	0.5174003543062052	0.9670715355306738	0.5142079691822072	0.47698883437871975	0.86787476573929	0.1210005067681006	0.44947241156711076	1.0412348936452527	0.028826149764614794	0.45682868320049713	0.9878304487123994	0.032903130638787484	0.5151746733855679	0.8097862868536196	0.049591001508449827	0.42253654380509853	1.1238532730151232	0.8720716305721442	0.30425910062579814	1.2718003917511917	0.5405932553068736	0.29229227803457414	1.3717735927039798	0.16087586122991293	0.3073490675005067	1.5932911769897216	0.0988065877456824	0.29339742456806195	1.557367824888926	0.10377724048515807	0.24917154342117676	1.356136843048998	0.08639424870115993	0.3187774079328073	1.0350480820556518	1.5838991517735037	0.3917811032278763	1.1292455719338452	1.839716708365398	0.4297858257103532	1.2478847662651253	1.6600658215961865	0.38859737432033303	1.0093250108034215	1.4626312776727524	0.5663230983865067	1.1437401124291737	1.186426542182582	0.6647512509854838	1.3717645395175406	1.0049001122738757	0.6405877504728938	0.9922910696579839	1.461096299257141	0.19943954598855151	0.9875594742927502	1.1493527768500689	0.1483993821963906	0.9979377120674818	0.8850070471431102	0.10233313291467441
121	4.033333333333333	1.1471428263529666	0.8829199267806968	0.42187743768445163	1.1150681256099098	0.8620535812146024	0.5097494126949136	0.9902419014265602	0.5098869893763508	0.47671135155835687	0.8755697258354579	0.12386830750375584	0.4531539233334698	1.0621517677810355	0.031367171927238514	0.4578192736100884	0.9819679790970238	0.029587394219445968	0.5123558748129539	0.8071815151518827	0.04930056292663213	0.4218339244675615	1.1647956496739293	0.8590118263231481	0.30971813455718106	1.3114456045879308	0.5149425801701196	0.2976749638805159	1.465284180080971	0.15369778948574286	0.3116931680218735	1.6702160451073467	0.12391086990118855	0.2920551280697747	1.6332858363962242	0.11364017306168862	0.23946213903166105	1.463588412896388	0.07657300183144404	0.3219635317096917	1.0772073698366091	1.5754025335904391	0.3877831890055312	1.1809911958251775	1.8305705090482205	0.43382891818174263	1.2876536256002213	1.6504421118150052	0.3890856261119433	1.0559593148490687	1.4542895453673133	0.567832885343985	1.1989149889840895	1.1770182745776123	0.6662152915513959	1.4342810350257273	1.0069925296621471	0.6327519291170287	1.0357434542351063	1.4558748096805332	0.19602780957320018	0.9826897275674591	1.1429517618852354	0.14735203433884814	1.03588177645084	0.8916496574220614	0.13162516177145964
122	4.066666666666666	1.1913312879023208	0.8755004389726736	0.41923978461332095	1.1614489877197323	0.8571853357053578	0.5094626332860441	1.0233469027428206	0.5022640317517859	0.4755861616756483	0.8859805316252285	0.13504299951131715	0.4606579849155075	1.0592967781871225	0.028380668157698376	0.45840233019398247	0.9819410734216711	0.023567000488183356	0.5053967225070637	0.8183106857495438	0.05713162096181221	0.44086140396419315	1.2092143002233173	0.8497275518071886	0.3131108175668279	1.3569350622001037	0.4972257084462069	0.2999545796346126	1.5318049279848083	0.13632303613133373	0.3145629428168124	1.7295269859048237	0.12301371634515836	0.30025300207677186	1.6952693716762703	0.10784913740685946	0.24334728587282403	1.5301335322819287	0.049135383451441826	0.3250132435824599	1.119295901912466	1.5650514810650271	0.3840723706828024	1.2094766233202905	1.8188307871761729	0.4236100524600307	1.3317446389080296	1.6420996792896854	0.38187099592744445	1.1022687116318257	1.4445095851840797	0.5620146756558689	1.2439573447321406	1.1655751683565694	0.6581503228496601	1.4778083961510717	1.0030083870632536	0.6253419235764791	1.0823672932565636	1.444925309879059	0.1923952745357506	1.0280735869708435	1.1307311263483508	0.147385879205968	1.073128522903506	0.8620168955261698	0.09503602231374644
123	4.1	1.2504511917657968	0.8655504812021843	0.42240319271387594	1.2250457438928264	0.8439740391764775	0.5110193988675458	1.067714910470973	0.49596857878541073	0.47521779112831436	0.8682316973360935	0.14109392669701679	0.43745472192603585	1.0611758326497513	0.0055156111338703325	0.46752577291294367	0.9893955866376245	0.02434026399131126	0.5036255876983241	0.8028039782888624	0.06941502469335542	0.42256827749577097	1.2718965541123088	0.8390416385966907	0.31506025540489746	1.404228561580287	0.4902510839530033	0.30216671082947083	1.566463899527496	0.11900347858854916	0.3218931615471177	1.772684312453059	0.09838756322536203	0.3117284860421354	1.7854505259763953	0.05340472324507156	0.2655946162568597	1.5475915297613092	0.035217115948367676	0.3321607088484544	1.164689515201911	1.5555897513778618	0.3784420695306009	1.25357704893709	1.8127085574304485	0.42265066810766344	1.3723272614842081	1.6354483679477287	0.3851465047376457	1.1449858287241317	1.4357119217359078	0.5550380470817093	1.2858258569021628	1.1538171243068798	0.6475529605979136	1.5774729903523692	1.0087289631636995	0.6310092066566398	1.1258109543806445	1.4360575121820784	0.18941530991849825	1.0703367710365501	1.1226306342504897	0.1443300686397692	1.1295369724519497	0.8669127521613652	0.12601164581606028
124	4.133333333333334	1.2991396572283507	0.8574954994947308	0.41482940918512484	1.2705659537261185	0.8418636622417909	0.5103432100504735	1.122243518642736	0.49207929120163896	0.47760001581128453	0.8829138273445397	0.15655975113928647	0.4418019831522841	1.069827965633924	0.001471010930236671	0.46212936856719883	0.9974708213398368	0.025753945101828123	0.4999721712939121	0.807126579021475	0.1000000486366684	0.4254238734559036	1.3159582865464383	0.8359345610322512	0.3061899004592986	1.451466476885912	0.4903830159132501	0.3026879733017033	1.5899542532524642	0.11224788078949456	0.3213645460355281	1.7930455862167771	0.07187455182696316	0.3095771316235681	1.7597909080322258	0.060405716881449294	0.2609529050475923	1.5564675752253572	0.03982061901838149	0.3271351151548763	1.2085107458471185	1.5478744318370588	0.37220440775325275	1.299661858739415	1.8051459213977792	0.41667174674424606	1.4195691758328146	1.6479245457127243	0.3646005110556826	1.1895830713964504	1.4261202939655595	0.5481170343258012	1.324246941337289	1.1466764605719677	0.6405676845445013	1.6110699421864465	0.998407445518519	0.6232353908352266	1.1716363037765083	1.4290111314513054	0.18749657967077205	1.115418932453858	1.1189829514279113	0.13587725774243037	1.1644537400696062	0.8570153248665184	0.1066975646499569
